<svg xmlns="http://www.w3.org/2000/svg" viewBox="0 0 305.72 101"><defs><style>.cls-1,.cls-8{fill:#c00;}.cls-2,.cls-5{fill:#690;}.cls-3,.cls-4{fill:#2e8ab8;}.cls-4,.cls-5,.cls-8,.cls-9{fill-rule:evenodd;}.cls-6{fill:#2b5555;}.cls-7{fill:#606;}.cls-9{fill:#0a1428;}</style></defs><title>Middel 1</title><g id="Laag_2" data-name="Laag 2"><g id="Foreground"><circle class="cls-1" cx="14.15" cy="72.69" r="9.74" transform="translate(-39.14 21.26) rotate(-35)"/><circle class="cls-2" cx="92.92" cy="77.5" r="8.96" transform="translate(-27.59 88.4) rotate(-45)"/><circle class="cls-3" cx="62.37" cy="31.4" r="10.02" transform="translate(-6.73 41.45) rotate(-35)"/><path class="cls-4" d="M39.71,22.1c2.74-6.47,2.17-15.88-3.48-20.76-4.49-3.88-7,1.58-2.74,4.86A16.36,16.36,0,0,1,39.71,22.1Z"/><path class="cls-4" d="M79,32.06c2-6.91,8.17-13.62,15.28-13.18,5.48.34,3.88,5.28-1.1,4.67C87.25,22.84,82.2,26.9,79,32.06Z"/><path class="cls-4" d="M42.45,19.21C42.4,14.4,45.08,8.87,49.73,7.73c4-1,4.39,3.51.69,4.2C46.48,12.65,43.2,14.59,42.45,19.21Z"/><path class="cls-5" d="M66.33,83c-1.55-6.09-1.91-11.06-.58-17.16C71.61,64.71,78.31,61.27,85.28,55c-7.93,7.27-9.91,20.4-4.59,29.7,5.23,9.14,17.08,14.3,25.1-2.07C99.13,109,72,105.12,66.33,83Z"/><path class="cls-6" d="M88.55,48.44c.63.67,3.33-1,5.86-.56,4.31.69,5.44,6.33,1.32,5.38-2.42-.56-7.13-.9-10.46,1.71a37.84,37.84,0,0,1-19.53,9.45C67.38,56.93,71.56,49.81,79.25,44c6.13-4.79,7.46-12.77,8.66-9.22,1.89,5.6-3.47,8.51-2.22,9.47.83.65,1.41-.65,4.34-.78C94.17,43.27,87.5,47.32,88.55,48.44Z"/><path class="cls-7" d="M22.37,22.26a21.56,21.56,0,0,1,1.91,1C35.38,28.9,46,44.16,46.82,59.35q0,1,0,1.92C38.89,56.8,33,49,29,42c-3-4.87-6.79-9.7-16.3-8.49-3.14.4-.85-4.31,3.23-4.78,4.46-.52,4.82.17,6.88-.34,1.65-.41-2.91-1.89-4.93-3.62C15.05,22.38,18.88,20.66,22.37,22.26Z"/><path class="cls-3" d="M79.25,44c-7.69,5.84-11.87,13-13.51,20.45a27.38,27.38,0,0,1-18.91-3.15c0-.64,0-1.28,0-1.92C46.06,45.41,37.06,31.4,27,24.93c3,1.7,2.5-1.29,2-3.05-.73-2.62,1.09-9.54,3.1-1.89C38.49,44.31,59.06,58.33,79.25,44Z"/><path class="cls-8" d="M35.56,59.12c2.67,26-14,36.34-27.65,31.69C21.18,94.34,35.74,84,35.56,59.12Zm-11.12,25c7.9-8,11.24-21.88,7.28-35.22-3.48-10.12-12.78-6.58-14.51-10.16C16.08,36.39,24.83,33.87,29,42c3.92,8.43,9.93,16.19,17.87,20.66C46.74,75.2,42.9,85.53,36.69,91.91,21.49,107.53-1.76,98.22.11,73.48.86,89.15,14.36,94.35,24.45,84.13Z"/><path class="cls-9" d="M179.35,75.07a7.2,7.2,0,0,0,2.68-.38,1.45,1.45,0,0,0,.52-1.25V63.89a1.32,1.32,0,0,0-.73-1.38,9.46,9.46,0,0,0-2.46-.3h-3.14v7.58c0,4.77-9.66,4.48-9.66,0V47.09A2.68,2.68,0,0,1,168,44.81a6.8,6.8,0,0,1,6.84,0,2.68,2.68,0,0,1,1.41,2.28v8.72h3.14c4,0,7.84.92,10.09,2.77a6.91,6.91,0,0,1,2.77,5.26v9.66a6.69,6.69,0,0,1-2.71,5.21c-2.21,1.88-6.09,2.82-10.14,2.82s-7.88-.94-10.08-2.82c-1.31-1.1-1.7-3.64,2-3.64Zm57.27-12.86h-6.93c-4,0-5.87-1.59-5.87-4.52V47.09a2.68,2.68,0,0,1,1.41-2.28,6.8,6.8,0,0,1,6.84,0,2.68,2.68,0,0,1,1.41,2.28v8.72h3.14c4,0,7.84.92,10.09,2.77a6.91,6.91,0,0,1,2.77,5.26v9.66a6.69,6.69,0,0,1-2.71,5.21c-2.21,1.88-6.09,2.82-10.14,2.82s-7.88-.94-10.08-2.82a6.69,6.69,0,0,1-2.71-5.21v-6c0-4.47,9.66-4.33,9.66,0v6a1.4,1.4,0,0,0,.87,1.41,9.66,9.66,0,0,0,2.27.22,7.2,7.2,0,0,0,2.68-.38,1.45,1.45,0,0,0,.52-1.25V63.89a1.32,1.32,0,0,0-.73-1.38A9.47,9.47,0,0,0,236.61,62.21Zm45,1.63a6.53,6.53,0,0,1,2.66-5.21q3.31-2.82,9.39-2.82h3.63a11.16,11.16,0,0,1,5.91,1.52,4.51,4.51,0,0,1,2.55,4.07,2.78,2.78,0,0,1-1.41,2.28,5.85,5.85,0,0,1-3.42,1,6.38,6.38,0,0,1-3-.65,3.37,3.37,0,0,1-1.68-1.79h-2.6a4.3,4.3,0,0,0-1.46.16,1.54,1.54,0,0,0-.92,1.52V78.32a2.7,2.7,0,0,1-1.44,2.25,6,6,0,0,1-3.39.95A6.11,6.11,0,0,1,283,80.6a2.68,2.68,0,0,1-1.41-2.28Zm-19.29,1.63h3.14a7.22,7.22,0,0,0,2.68-.38,1.45,1.45,0,0,0,.51-1.25,1.27,1.27,0,0,0-.73-1.33,9.47,9.47,0,0,0-2.46-.3,11.25,11.25,0,0,0-2.22.16,1.54,1.54,0,0,0-.92,1.52Zm0,8c0,1,1.58,1.57,3.25,1.57H268a3.43,3.43,0,0,1,1.68-1.68,6.73,6.73,0,0,1,6.4.22,2.68,2.68,0,0,1,1.41,2.28,4.12,4.12,0,0,1-.6,2.14,6,6,0,0,1-1.68,1.79,8.61,8.61,0,0,1-2.66,1.25,12.51,12.51,0,0,1-3.53.46h-3.63a19.41,19.41,0,0,1-8.57-1.79q-4.23-2.17-4.23-6.24V63.84a6.53,6.53,0,0,1,2.66-5.21c2.21-1.88,6.09-2.82,10.14-2.82s7.84.92,10.08,2.77a6.91,6.91,0,0,1,2.77,5.26A6.69,6.69,0,0,1,275.57,69c-2.21,1.88-6.09,2.82-10.14,2.82h-3.14ZM209.76,55.87a12.65,12.65,0,0,1,8.31,2.7,6.91,6.91,0,0,1,2.77,5.26v9.66a6.69,6.69,0,0,1-2.71,5.21c-2.21,1.88-6.09,2.82-10.14,2.82s-7.88-.94-10.08-2.82a6.69,6.69,0,0,1-2.71-5.21V47.09a2.68,2.68,0,0,1,1.41-2.28,6.8,6.8,0,0,1,6.84,0,2.68,2.68,0,0,1,1.41,2.28V73.44a1.4,1.4,0,0,0,.87,1.41,9.66,9.66,0,0,0,2.27.22,7.2,7.2,0,0,0,2.68-.38,1.45,1.45,0,0,0,.52-1.25V63.89a1.32,1.32,0,0,0-.73-1.38,5.56,5.56,0,0,0-1.29-.24C205.5,61.87,206.26,55.87,209.76,55.87ZM150.4,81.52c-4,0-7.88-.94-10.08-2.82a6.69,6.69,0,0,1-2.71-5.21V59A2.68,2.68,0,0,1,139,56.73a6.8,6.8,0,0,1,6.84,0A2.68,2.68,0,0,1,147.26,59V73.44a1.4,1.4,0,0,0,.87,1.41,9.66,9.66,0,0,0,2.27.22,7.18,7.18,0,0,0,2.68-.38,1.44,1.44,0,0,0,.52-1.25V59A2.68,2.68,0,0,1,155,56.73a6.8,6.8,0,0,1,6.84,0A2.68,2.68,0,0,1,163.25,59V73.49a6.69,6.69,0,0,1-2.71,5.21C158.34,80.58,154.46,81.52,150.4,81.52Zm-19-3.2A2.71,2.71,0,0,1,130,80.57a6.61,6.61,0,0,1-6.78,0,2.68,2.68,0,0,1-1.41-2.28V52.55h-4.7a6.11,6.11,0,0,1-3.42-.92c-.94-.61-.94-3.94,0-4.56a6.1,6.1,0,0,1,3.42-.92h19a6.1,6.1,0,0,1,3.42.92c.94.61.94,3.94,0,4.56a6.11,6.11,0,0,1-3.42.92h-4.7Z"/></g></g></svg>